<svg width="15" height="15" viewBox="0 0 15 15" fill="none" xmlns="http://www.w3.org/2000/svg">
<path d="M6.99992 1.33331C5.53735 1.33272 4.13118 1.89764 3.07554 2.90993C2.01989 3.92222 1.39653 5.30347 1.33582 6.76478C1.27512 8.22609 1.78178 9.65428 2.74982 10.7506C3.71787 11.847 5.07234 12.5266 6.52992 12.6473L6.37392 13.2713C6.34411 13.3896 6.32977 13.5113 6.33125 13.6333C2.96325 13.298 0.333252 10.456 0.333252 6.99998C0.333252 3.31798 3.31792 0.333313 6.99992 0.333313C10.5133 0.333313 13.3926 3.05131 13.6479 6.49998C13.3822 6.39008 13.0975 6.33345 12.8099 6.33331H12.8086C12.7486 6.33331 12.6886 6.33598 12.6286 6.34065C12.4669 4.96133 11.8043 3.68941 10.7667 2.76635C9.7291 1.84329 8.38868 1.33334 6.99992 1.33331Z" fill="white"/>
<path d="M12.81 7H12.8087C12.4187 7 12.0287 7.14867 11.732 7.44667L7.79733 11.3813C7.56776 11.6106 7.40484 11.8979 7.326 12.2127L7.02066 13.4333C6.9903 13.5548 6.99191 13.682 7.02535 13.8027C7.05879 13.9233 7.12291 14.0332 7.21147 14.1217C7.30002 14.2102 7.40999 14.2742 7.53066 14.3076C7.65132 14.3409 7.77857 14.3425 7.9 14.312L9.12 14.0073C9.43495 13.9286 9.72256 13.7657 9.952 13.536L13.8867 9.60133C14.1 9.38837 14.2453 9.11691 14.3043 8.82131C14.3632 8.52571 14.3332 8.21927 14.2179 7.94077C14.1026 7.66226 13.9073 7.42421 13.6567 7.25675C13.4061 7.08928 13.1114 6.99993 12.81 7Z" fill="white"/>
</svg>
