<?xml version="1.0" encoding="UTF-8"?>
<svg xmlns="http://www.w3.org/2000/svg" xmlns:xlink="http://www.w3.org/1999/xlink" viewBox="0 0 480 480" width="480px" height="480px">
<g id="surface444606">
<path style=" stroke:none;fill-rule:nonzero;fill:rgb(40.000001%,40.000001%,40.000001%);fill-opacity:1;" d="M 208 48 C 119.824219 48 48 119.824219 48 208 C 48 296.175781 119.824219 368 208 368 C 246.34375 368 281.558594 354.382812 309.15625 331.78125 L 404.6875 427.3125 C 408.699219 431.492188 414.660156 433.175781 420.265625 431.714844 C 425.875 430.253906 430.253906 425.875 431.714844 420.265625 C 433.175781 414.660156 431.492188 408.699219 427.3125 404.6875 L 331.78125 309.15625 C 354.382812 281.558594 368 246.34375 368 208 C 368 119.824219 296.175781 48 208 48 Z M 208 80 C 278.882812 80 336 137.117188 336 208 C 336 278.882812 278.882812 336 208 336 C 137.117188 336 80 278.882812 80 208 C 80 137.117188 137.117188 80 208 80 Z M 208 80 "/>
</g>
</svg>
