<?xml version="1.0" encoding="UTF-8" standalone="no"?>
<svg
   viewBox="0 0 480 480"
   width="480px"
   height="480px"
   version="1.1"
   id="svg827"
   sodipodi:docname="icons8-search.svg"
   inkscape:version="1.1.1 (3bf5ae0d25, 2021-09-20)"
   xmlns:inkscape="http://www.inkscape.org/namespaces/inkscape"
   xmlns:sodipodi="http://sodipodi.sourceforge.net/DTD/sodipodi-0.dtd"
   xmlns="http://www.w3.org/2000/svg"
   xmlns:svg="http://www.w3.org/2000/svg">
  <defs
     id="defs831" />
  <sodipodi:namedview
     id="namedview829"
     pagecolor="#505050"
     bordercolor="#eeeeee"
     borderopacity="1"
     inkscape:pageshadow="0"
     inkscape:pageopacity="0"
     inkscape:pagecheckerboard="0"
     showgrid="false"
     inkscape:zoom="0.84270833"
     inkscape:cx="24.326329"
     inkscape:cy="360.14833"
     inkscape:window-width="1920"
     inkscape:window-height="1017"
     inkscape:window-x="-8"
     inkscape:window-y="-8"
     inkscape:window-maximized="1"
     inkscape:current-layer="svg827" />
  <g
     id="surface444606"
     style="fill:#ffffff;fill-opacity:1">
    <path
       style="fill:#ffffff;fill-opacity:1;fill-rule:nonzero;stroke:none"
       d="m 208,48 c -88.17578,0 -160,71.82422 -160,160 0,88.17578 71.82422,160 160,160 38.34375,0 73.55859,-13.61719 101.15625,-36.21875 l 95.53125,95.53125 c 4.01172,4.17969 9.97266,5.86328 15.57812,4.40234 5.60938,-1.46093 9.98829,-5.83984 11.44922,-11.44922 1.46094,-5.60546 -0.22265,-11.5664 -4.40234,-15.57812 L 331.78125,309.15625 C 354.38281,281.55859 368,246.34375 368,208 368,119.82422 296.17578,48 208,48 Z m 0,32 c 70.88281,0 128,57.11719 128,128 0,70.88281 -57.11719,128 -128,128 C 137.11719,336 80,278.88281 80,208 80,137.11719 137.11719,80 208,80 Z m 0,0"
       id="path824" />
  </g>
</svg>
